<?xml version="1.0" standalone="no"?>
<!DOCTYPE svg PUBLIC "-//W3C//DTD SVG 20010904//EN"
 "http://www.w3.org/TR/2001/REC-SVG-20010904/DTD/svg10.dtd">
<svg version="1.0" xmlns="http://www.w3.org/2000/svg"
 width="273.000000pt" height="273.000000pt" viewBox="0 0 273.000000 273.000000"
 preserveAspectRatio="xMidYMid meet">
<metadata>
Created by potrace 1.11, written by Peter Selinger 2001-2013
</metadata>
<g transform="translate(0.000000,273.000000) scale(0.100000,-0.100000)"
fill="#000000" stroke="none">
<path d="M13 2723 c-10 -4 -13 -286 -13 -1364 l0 -1359 1359 0 c1230 0 1359 2
1365 16 3 9 6 616 6 1349 0 1199 -2 1335 -16 1349 -14 14 -150 16 -1352 15
-735 0 -1343 -3 -1349 -6z m2635 -1365 l-3 -1293 -1287 -3 -1288 -2 0 1295 0
1295 1290 0 1290 0 -2 -1292z"/>
<path d="M340 1365 l0 -685 65 0 65 0 0 208 0 207 126 133 c69 72 129 132 133
132 4 0 124 -153 266 -340 l259 -340 74 0 c58 0 72 3 65 13 -75 93 -573 748
-573 753 0 3 116 130 257 282 141 153 266 287 277 300 l20 23 -74 -3 -75 -3
-370 -390 c-203 -214 -373 -391 -377 -393 -4 -2 -8 174 -8 392 l0 396 -65 0
-65 0 0 -685z"/>
<path d="M1580 1365 l0 -685 70 0 70 0 0 315 0 315 320 0 320 0 0 55 0 55
-320 0 -320 0 0 255 0 255 380 0 380 0 0 60 0 60 -450 0 -450 0 0 -685z"/>
</g>
</svg>
